<svg viewBox="60 60 210 185" fill="none" xmlns="http://www.w3.org/2000/svg">
<path d="M93.456 237V211.128H97.824V216.408L97.2 215.592C97.84 213.96 98.864 212.712 100.272 211.848C101.68 210.984 103.264 210.552 105.024 210.552C107.04 210.552 108.848 211.112 110.448 212.232C112.08 213.352 113.2 214.824 113.808 216.648L112.56 216.696C113.232 214.68 114.368 213.16 115.968 212.136C117.568 211.08 119.344 210.552 121.296 210.552C123.088 210.552 124.704 210.968 126.144 211.8C127.616 212.632 128.784 213.784 129.648 215.256C130.512 216.728 130.944 218.392 130.944 220.248V237H126.432V221.688C126.432 220.248 126.176 219.032 125.664 218.04C125.152 217.048 124.448 216.28 123.552 215.736C122.688 215.16 121.664 214.872 120.48 214.872C119.328 214.872 118.288 215.16 117.36 215.736C116.464 216.28 115.744 217.064 115.2 218.088C114.688 219.08 114.432 220.28 114.432 221.688V237H109.92V221.688C109.92 220.248 109.664 219.032 109.152 218.04C108.64 217.048 107.936 216.28 107.04 215.736C106.176 215.16 105.152 214.872 103.968 214.872C102.816 214.872 101.776 215.16 100.848 215.736C99.952 216.28 99.232 217.064 98.688 218.088C98.176 219.08 97.92 220.28 97.92 221.688V237H93.456ZM144.868 237.576C143.172 237.576 141.668 237.272 140.356 236.664C139.076 236.024 138.068 235.16 137.332 234.072C136.596 232.952 136.228 231.672 136.228 230.232C136.228 228.856 136.516 227.624 137.092 226.536C137.7 225.416 138.628 224.472 139.876 223.704C141.156 222.936 142.756 222.392 144.676 222.072L154.276 220.488V224.232L145.684 225.672C144.02 225.96 142.804 226.488 142.036 227.256C141.3 228.024 140.932 228.968 140.932 230.088C140.932 231.144 141.348 232.024 142.18 232.728C143.044 233.432 144.116 233.784 145.396 233.784C147.028 233.784 148.436 233.448 149.62 232.776C150.836 232.072 151.78 231.128 152.452 229.944C153.156 228.76 153.508 227.448 153.508 226.008V219.432C153.508 218.024 152.98 216.888 151.924 216.024C150.9 215.128 149.54 214.68 147.844 214.68C146.372 214.68 145.06 215.064 143.908 215.832C142.788 216.568 141.956 217.56 141.412 218.808L137.524 216.792C138.004 215.608 138.772 214.552 139.828 213.624C140.884 212.664 142.116 211.912 143.524 211.368C144.932 210.824 146.404 210.552 147.94 210.552C149.924 210.552 151.668 210.936 153.172 211.704C154.676 212.44 155.844 213.48 156.676 214.824C157.54 216.136 157.972 217.672 157.972 219.432V237H153.604V232.104L154.42 232.392C153.876 233.416 153.14 234.312 152.212 235.08C151.284 235.848 150.196 236.456 148.948 236.904C147.7 237.352 146.34 237.576 144.868 237.576ZM164.894 237V211.128H169.262V216.168L168.542 215.736C169.182 214.104 170.206 212.84 171.614 211.944C173.054 211.016 174.734 210.552 176.654 210.552C178.51 210.552 180.158 210.968 181.598 211.8C183.07 212.632 184.222 213.784 185.054 215.256C185.918 216.728 186.35 218.392 186.35 220.248V237H181.838V221.688C181.838 220.248 181.582 219.032 181.07 218.04C180.558 217.048 179.822 216.28 178.862 215.736C177.934 215.16 176.862 214.872 175.646 214.872C174.43 214.872 173.342 215.16 172.382 215.736C171.454 216.28 170.718 217.064 170.174 218.088C169.63 219.08 169.358 220.28 169.358 221.688V237H164.894ZM192.737 237V211.128H197.105V216.168L196.385 215.736C197.025 214.104 198.049 212.84 199.457 211.944C200.897 211.016 202.577 210.552 204.497 210.552C206.353 210.552 208.001 210.968 209.441 211.8C210.913 212.632 212.065 213.784 212.897 215.256C213.761 216.728 214.193 218.392 214.193 220.248V237H209.681V221.688C209.681 220.248 209.425 219.032 208.913 218.04C208.401 217.048 207.665 216.28 206.705 215.736C205.777 215.16 204.705 214.872 203.489 214.872C202.273 214.872 201.185 215.16 200.225 215.736C199.297 216.28 198.561 217.064 198.017 218.088C197.473 219.08 197.201 220.28 197.201 221.688V237H192.737ZM228.165 237.576C226.469 237.576 224.965 237.272 223.653 236.664C222.373 236.024 221.365 235.16 220.629 234.072C219.893 232.952 219.525 231.672 219.525 230.232C219.525 228.856 219.813 227.624 220.389 226.536C220.997 225.416 221.925 224.472 223.173 223.704C224.453 222.936 226.053 222.392 227.973 222.072L237.573 220.488V224.232L228.981 225.672C227.317 225.96 226.101 226.488 225.333 227.256C224.597 228.024 224.229 228.968 224.229 230.088C224.229 231.144 224.645 232.024 225.477 232.728C226.341 233.432 227.413 233.784 228.693 233.784C230.325 233.784 231.733 233.448 232.917 232.776C234.133 232.072 235.077 231.128 235.749 229.944C236.453 228.76 236.805 227.448 236.805 226.008V219.432C236.805 218.024 236.277 216.888 235.221 216.024C234.197 215.128 232.837 214.68 231.141 214.68C229.669 214.68 228.357 215.064 227.205 215.832C226.085 216.568 225.253 217.56 224.709 218.808L220.821 216.792C221.301 215.608 222.069 214.552 223.125 213.624C224.181 212.664 225.413 211.912 226.821 211.368C228.229 210.824 229.701 210.552 231.237 210.552C233.221 210.552 234.965 210.936 236.469 211.704C237.973 212.44 239.141 213.48 239.973 214.824C240.837 216.136 241.269 217.672 241.269 219.432V237H236.901V232.104L237.717 232.392C237.173 233.416 236.437 234.312 235.509 235.08C234.581 235.848 233.493 236.456 232.245 236.904C230.997 237.352 229.637 237.576 228.165 237.576Z" fill="white"/>
<g opacity="0.8" filter="url(#filter0_f_59_28)">
<g clip-path="url(#clip0_59_28)">
<path d="M166.5 150.5C204.571 150.5 238.484 159.53 266 170.5C237.234 161.961 203.496 157 165.984 157C130.242 157 96.446 162.036 68.5 169.851C95.53 159.594 129.82 150.5 166.5 150.5Z" fill="white" fill-opacity="0.3"/>
<path d="M167.101 84C217.765 84 259.627 121.677 266.2 170.541C244.053 150.229 207.919 137 167.101 137C126.282 137 90.1468 150.228 68 170.541C74.5736 121.677 116.436 84 167.101 84Z" fill="white" fill-opacity="0.8"/>
<path d="M167.133 137C207.927 137 244.043 150.213 266.193 170.505C238.817 159.546 204.189 153 166.532 153C129.845 153 96.0326 159.211 69 169.665C91.2233 149.849 126.904 137 167.133 137Z" fill="white" fill-opacity="0.5"/>
</g>
</g>
<g clip-path="url(#clip1_59_28)">
<path d="M166.5 150.5C204.571 150.5 238.484 159.53 266 170.5C237.234 161.961 203.496 157 165.984 157C130.242 157 96.446 162.036 68.5 169.851C95.53 159.594 129.82 150.5 166.5 150.5Z" fill="white" fill-opacity="0.3"/>
<path d="M167.101 84C217.765 84 259.627 121.677 266.2 170.541C244.053 150.229 207.919 137 167.101 137C126.282 137 90.1468 150.228 68 170.541C74.5736 121.677 116.436 84 167.101 84Z" fill="white" fill-opacity="0.8"/>
<path d="M167.133 137C207.927 137 244.043 150.213 266.193 170.505C238.817 159.546 204.189 153 166.532 153C129.845 153 96.0326 159.211 69 169.665C91.2233 149.849 126.904 137 167.133 137Z" fill="white" fill-opacity="0.5"/>
</g>
<defs>
<filter id="filter0_f_59_28" x="44" y="60" width="246.2" height="134.541" filterUnits="userSpaceOnUse" color-interpolation-filters="sRGB">
<feFlood flood-opacity="0" result="BackgroundImageFix"/>
<feBlend mode="normal" in="SourceGraphic" in2="BackgroundImageFix" result="shape"/>
<feGaussianBlur stdDeviation="12" result="effect1_foregroundBlur_59_28"/>
</filter>
<clipPath id="clip0_59_28">
<rect width="198.2" height="86.541" fill="white" transform="translate(68 84)"/>
</clipPath>
<clipPath id="clip1_59_28">
<rect width="198.2" height="86.541" fill="white" transform="translate(68 84)"/>
</clipPath>
</defs>
</svg>