<?xml version="1.0" encoding="UTF-8"?>
<svg id="Capa_1" xmlns="http://www.w3.org/2000/svg" version="1.1" viewBox="0 0 1080 496">
  <!-- Generator: Adobe Illustrator 29.6.1, SVG Export Plug-In . SVG Version: 2.1.1 Build 9)  -->
  <defs>
    <style>
      .st0 {
        fill: #fff;
      }

      .st1 {
        fill: none;
      }
    </style>
  </defs>
  <path class="st1" d="M202.5,227.6c-24.3,0-45.1,8.5-62.3,25.4-17.2,16.9-25.8,37.6-25.8,61.9s8.6,47.2,25.9,64.4c17.3,17.3,38.4,25.9,63.2,25.9s42.5-8.7,59.7-26c17.2-17.4,25.8-37.7,25.8-61s-8.6-46-25.9-63.9c-17.3-17.8-37.5-26.7-60.7-26.7Z"/>
  <rect class="st0" x="425.9" y="156.2" width="75.4" height="313.6"/>
  <rect class="st0" x="425.9" y="9.2" width="73.4" height="74.5"/>
  <rect class="st0" x="995.8" y="158.2" width="75.4" height="313.6"/>
  <rect class="st0" x="995.8" y="11.1" width="73.4" height="74.5"/>
  <path class="st0" d="M296.5,169.3h0v32.6c-9.9-15-22.9-26.1-39.1-33.5-16.2-7.4-35.5-11.1-57.9-11.1s-44.4,3.8-63.1,11.5c-18.7,7.7-35.7,19.5-51,35.6-14.2,14.6-25.1,31.5-32.8,50.7-7.7,19.2-11.5,39.5-11.5,61,0,45.6,15.3,83.8,45.8,114.6,30.6,30.8,68.7,46.1,114.3,46.1s44.3-3.6,59.9-10.8c15.6-7.2,27.7-18.4,36.3-33.5v37.4h69.3V169.3h0v-13.1h-70.1v13.1ZM263.4,379.2c-17.2,17.4-37.1,26-59.7,26s-45.9-8.6-63.2-25.9c-17.3-17.3-25.9-38.8-25.9-64.4s8.6-45,25.8-61.9c17.2-16.9,37.9-25.4,62.3-25.4s43.4,8.9,60.7,26.7c17.3,17.8,25.9,39.1,25.9,63.9s-8.6,43.6-25.8,61Z"/>
  <path class="st0" d="M648.1,156.2c.2-40.7,36.5-73.6,77.4-72.5V9.2c-67.8-2.8-129.7,46.8-147.4,110.2-1.3,4.5-5.4,20.7-5.4,24.1v326.3h72.4l3-2.9v-234h77.6v-76.6h-77.6Z"/>
  <path class="st0" d="M850.6,156.2c.3-39.9,34.2-71.1,74.1-72.9l3.3-2.6V9.2c-62.1-2.5-120.6,39.1-142.4,95.5-2.7,7-10.4,30.6-10.4,36.8v328.3h72.4l3-2.9v-200.4h.1v-33.8h77.7v-76.4h-77.8Z"/>
</svg>