<svg width="342" height="56" viewBox="0 0 342 56" fill="none" xmlns="http://www.w3.org/2000/svg">
<path d="M28 0C43.464 0 56 12.536 56 28C56 29.3582 55.9017 30.6935 55.7148 32H8.40039C10.2535 41.1289 18.3242 48 28 48C34.5432 48 40.3521 44.8577 44.001 40H53.3037C48.8097 49.4594 39.1693 56 28 56C12.536 56 0 43.464 0 28C0 12.536 12.536 0 28 0ZM85 0C96.1693 0 105.81 6.54058 110.304 16H101.001C97.3521 11.1423 91.5432 8 85 8C75.3242 8 67.2535 14.8711 65.4004 24H112.715C112.902 25.3065 113 26.6418 113 28C113 43.464 100.464 56 85 56C73.8307 56 64.1903 49.4594 59.6963 40H68.999C72.6479 44.8577 78.4568 48 85 48C94.6758 48 102.747 41.1289 104.6 32H57.2852C57.0983 30.6935 57 29.3582 57 28C57 12.536 69.536 0 85 0ZM142 0C156.106 0 167.774 10.4309 169.715 24H161.6C159.747 14.8711 151.676 8 142 8C130.954 8 122 16.9543 122 28C122 39.0457 130.954 48 142 48C151.676 48 159.747 41.1289 161.6 32H169.715C167.774 45.5691 156.106 56 142 56C126.536 56 114 43.464 114 28C114 12.536 126.536 0 142 0ZM199 0C214.464 0 227 12.536 227 28V56H219V47.5928C213.918 52.7799 206.836 56 199 56C183.536 56 171 43.464 171 28C171 12.536 183.536 0 199 0ZM257 0C272.464 0 285 12.536 285 28C285 43.464 272.464 56 257 56C249.164 56 242.082 52.7799 237 47.5928V56H229V28C229 12.536 241.536 0 257 0ZM314 0C329.464 0 342 12.536 342 28C342 29.3582 341.902 30.6935 341.715 32H294.4C296.253 41.1289 304.324 48 314 48C320.543 48 326.352 44.8577 330.001 40H339.304C334.81 49.4594 325.169 56 314 56C298.536 56 286 43.464 286 28C286 12.536 298.536 0 314 0ZM199 8C187.954 8 179 16.9543 179 28C179 39.0457 187.954 48 199 48C210.046 48 219 39.0457 219 28C219 16.9543 210.046 8 199 8ZM257 8C245.954 8 237 16.9543 237 28C237 39.0457 245.954 48 257 48C268.046 48 277 39.0457 277 28C277 16.9543 268.046 8 257 8ZM28 8C18.3242 8 10.2535 14.8711 8.40039 24H47.5996C45.7465 14.8711 37.6758 8 28 8ZM314 8C304.324 8 296.253 14.8711 294.4 24H333.6C331.747 14.8711 323.676 8 314 8Z" fill="#FFFFFF"/>
</svg>
