<svg width="100" height="26" viewBox="0 0 100 26" fill="none" xmlns="http://www.w3.org/2000/svg">
  <path d="M24.2238 13.0629C24.2238 6.7621 18.9343 1.67537 12.5637 2.01618C6.95882 2.31474 2.42369 6.85233 2.12529 12.4602C1.78748 18.8314 6.87154 24.1266 13.1661 24.1266H20.4319C22.5235 24.1266 24.2182 22.4309 24.2182 20.3382V13.4319C24.221 13.3107 24.2238 13.1868 24.2238 13.0629ZM7.47962 19.2088C5.72018 17.7047 4.63355 15.2993 4.68423 12.8489C4.68704 12.6771 4.69548 12.5052 4.71237 12.3334V12.3221C4.96854 9.39566 6.85748 6.66634 9.50368 5.39887C12.1527 4.13139 15.4604 4.3736 17.8983 6.01005C20.3334 7.64932 21.8085 10.6237 21.6368 13.5558C21.6002 14.198 21.4876 14.8345 21.3327 15.457C21.2596 15.7527 21.1666 16.0626 20.9077 16.2485C20.7641 16.3499 20.5755 16.3893 20.4122 16.3189C20.1391 16.2006 20.1053 15.8823 20.0856 15.6091C19.9477 13.6403 19.4241 11.6124 18.0926 10.1562C17.0876 9.05487 15.6631 8.35638 14.1796 8.21837C12.696 8.08036 11.173 8.50555 9.96254 9.37307C8.94911 10.0998 8.15524 11.1391 7.76957 12.3221C7.3839 13.5051 7.42331 14.8346 7.93003 15.9753C8.30162 16.8119 8.91814 17.5384 9.68103 18.0398C11.0323 18.927 12.8818 19.0538 14.2865 18.251C15.6913 17.4483 16.5302 15.7077 16.1726 14.1304C15.7982 12.477 14.0641 11.2067 12.3807 11.5194C12.2202 11.5503 12.0513 11.4546 12.0091 11.2968C11.95 11.0687 12.2033 10.9504 12.4117 10.9138C14.0444 10.6209 15.7926 11.4489 16.6878 12.846C17.583 14.243 17.6281 16.1133 16.8961 17.6033C16.1642 19.0933 14.7144 20.1804 13.1014 20.5747C10.9309 21.1043 8.96318 20.4791 7.4768 19.2088H7.47962Z" fill="url(#paint0_linear_774_6578)"/>
  <path d="M38.0541 11.0863C35.7683 11.2834 33.9244 12.0975 32.559 13.5142C32.5421 13.5311 32.5252 13.548 32.5083 13.5677V7.2276H30.0817V19.4009H32.5083V19.3249H32.5112C32.5112 19.2967 32.4492 16.9759 34.2481 15.1198C35.1686 14.1706 36.4439 13.6044 38.0513 13.4298V19.4009H40.4779V7.2276H38.0513V11.0863H38.0541Z" fill="var(--hl_text_00)"/>
  <path d="M49.9418 10.7419C49.1001 10.0237 48.0106 9.58984 46.8226 9.58984C44.1483 9.58984 41.9778 11.7868 41.9778 14.4936C41.9778 17.2004 44.1455 19.3974 46.8226 19.3974C48.0106 19.3974 49.0972 18.9635 49.9418 18.2453V19.3974H52.3684V9.58984H49.9418V10.7419ZM47.2899 17.1525C45.8373 17.1525 44.655 15.9582 44.655 14.4936C44.655 13.029 45.8373 11.8347 47.2899 11.8347C48.7425 11.8347 49.9249 13.029 49.9249 14.4936C49.9249 15.9582 48.7425 17.1525 47.2899 17.1525Z" fill="var(--hl_text_00)"/>
  <path fill-rule="evenodd" clip-rule="evenodd" d="M55.9478 8.66357C55.7198 8.88326 55.4326 8.99322 55.0892 8.99322C54.7429 8.99322 54.4558 8.88326 54.2278 8.66357C53.9997 8.44387 53.8843 8.17075 53.8843 7.84402C53.8843 7.5173 53.9997 7.24404 54.2278 7.02435C54.4586 6.80465 54.7457 6.69482 55.0892 6.69482C55.4326 6.69482 55.7198 6.80465 55.9478 7.02435C56.1758 7.24404 56.2912 7.5173 56.2912 7.84402C56.2912 8.17075 56.1758 8.44387 55.9478 8.66357ZM53.8685 9.58964H56.3092V19.431H53.8685V9.58964Z" fill="var(--hl_text_00)"/>
  <path d="M60.2501 7.17334H57.8094V19.4284H60.2501V7.17334Z" fill="var(--hl_text_00)"/>
  <path d="M68.3377 14.9528C68.3377 15.7217 68.1462 16.0231 67.7605 16.4372C67.3749 16.8512 66.8456 17.0569 66.17 17.0569C65.4944 17.0569 64.982 16.8512 64.5964 16.4372C64.2107 16.0231 64.1966 15.7246 64.1966 14.9528V9.61816H61.7503V15.3021C61.7503 16.164 61.8714 16.9611 62.1895 17.592C62.3556 17.9216 62.744 18.5862 63.4422 18.9496C64.0334 19.2566 64.6949 19.4313 65.4522 19.4313C66.0462 19.4313 66.5979 19.313 67.1046 19.0736C67.6114 18.8342 68.0224 18.3891 68.3377 17.9694V19.4284H70.8037V9.62105H68.3377V14.9557V14.9528Z" fill="var(--hl_text_00)"/>
  <path d="M77.8718 9.63232H76.4783C74.1812 9.63232 72.3035 11.5109 72.3035 13.8092V15.2035C72.3035 17.5019 74.1812 19.3806 76.4783 19.3806H77.8718C80.1689 19.3806 82.0466 17.5019 82.0466 15.2035V13.8092C82.0466 11.5109 80.1689 9.63232 77.8718 9.63232ZM77.1765 17.1668C75.7239 17.1668 74.5415 15.9724 74.5415 14.5078C74.5415 13.0431 75.7239 11.8489 77.1765 11.8489C78.6291 11.8489 79.8114 13.0431 79.8114 14.5078C79.8114 15.9724 78.6291 17.1668 77.1765 17.1668Z" fill="var(--hl_text_00)"/>
  <path d="M98.2639 7.22754H96.679V19.3812H98.2639V7.22754Z" fill="var(--hl_text_00)"/>
  <path d="M91.0442 7.28613H89.4593L85.0565 19.3807H86.6414L87.4493 17.1583H93.0598L93.8677 19.3807H95.4526L91.0498 7.28613H91.0385H91.0442ZM88.0292 15.5697L90.2588 9.44645L92.4883 15.5697H88.032H88.0292Z" fill="var(--hl_text_00)"/>
  <defs>
    <linearGradient id="paint0_linear_774_6578" x1="2.60386" y1="2.81328" x2="27.4516" y2="26.8989" gradientUnits="userSpaceOnUse">
      <stop offset="0.11" stop-color="#FFD400"/>
      <stop offset="0.22" stop-color="#FF891F"/>
      <stop offset="0.42" stop-color="#E4659A"/>
      <stop offset="0.56" stop-color="#DB2ED7"/>
      <stop offset="0.75" stop-color="#7264F4"/>
    </linearGradient>
  </defs>
</svg>
